<?xml version="1.0" encoding="UTF-8" standalone="no"?>
<svg
   width="327.74"
   height="36.009"
   viewBox="0 0 327.74 36.009"
   version="1.1"
   id="svg18"
   sodipodi:docname="logo.svg"
   inkscape:version="1.1.1 (c3084ef, 2021-09-22)"
   xmlns:inkscape="http://www.inkscape.org/namespaces/inkscape"
   xmlns:sodipodi="http://sodipodi.sourceforge.net/DTD/sodipodi-0.dtd"
   xmlns="http://www.w3.org/2000/svg"
   xmlns:svg="http://www.w3.org/2000/svg">
  <defs
     id="defs22" />
  <sodipodi:namedview
     id="namedview20"
     pagecolor="#ffffff"
     bordercolor="#666666"
     borderopacity="1.0"
     inkscape:pageshadow="2"
     inkscape:pageopacity="0.0"
     inkscape:pagecheckerboard="0"
     showgrid="false"
     inkscape:zoom="3.3898823"
     inkscape:cx="162.10002"
     inkscape:cy="17.994725"
     inkscape:window-width="1280"
     inkscape:window-height="1024"
     inkscape:window-x="0"
     inkscape:window-y="0"
     inkscape:window-maximized="0"
     inkscape:current-layer="svg18" />
  <path
     d="M 32.697,8.168 H 9.239 v 5.952 h 22.238 v 7.296 H 9.239 V 35.088 H 0 V 0.872 h 32.697 z"
     id="0"
     vector-effect="non-scaling-stroke"
     style="font-size:12px;fill:#000000;fill-rule:evenodd;stroke:#000000;stroke-width:0.25mm;stroke-linecap:round" />
  <path
     d="m 49.83,0.872 v 19.573 q 0,1.505 0.196,2.622 a 8.105,8.105 0 0 0 0.202,0.877 5.273,5.273 0 0 0 0.463,1.115 4.034,4.034 0 0 0 0.832,1.039 4.386,4.386 0 0 0 1.253,0.771 6.058,6.058 0 0 0 1.075,0.325 q 1.083,0.225 2.542,0.281 a 26.035,26.035 0 0 0 0.982,0.017 h 17.531 v 7.596 H 55.482 a 41.517,41.517 0 0 1 -2.855,-0.093 q -1.399,-0.097 -2.614,-0.294 a 20.784,20.784 0 0 1 -1.391,-0.273 15.083,15.083 0 0 1 -2.126,-0.656 q -1.161,-0.46 -2.082,-1.088 A 8.773,8.773 0 0 1 44.002,32.386 7.897,7.897 0 0 1 41.4,28.887 Q 40.656,26.941 40.596,24.321 A 20.296,20.296 0 0 1 40.591,23.857 V 0.872 Z"
     id="1"
     vector-effect="non-scaling-stroke"
     style="font-size:12px;fill:#000000;fill-rule:evenodd;stroke:#000000;stroke-width:0.25mm;stroke-linecap:round" />
  <path
     d="m 120.204,25.401 v 7.993 a 49.195,49.195 0 0 1 -8.405,2.005 q -4.196,0.61 -8.579,0.61 -5.51,0 -9.828,-1.168 a 27.689,27.689 0 0 1 -0.145,-0.04 24.774,24.774 0 0 1 -3.91,-1.424 18.617,18.617 0 0 1 -3.449,-2.075 Q 82.9,29.011 81.331,25.699 A 16.283,16.283 0 0 1 79.9,20.611 20.42,20.42 0 0 1 79.762,18.204 16.69,16.69 0 0 1 81.017,11.729 16.136,16.136 0 0 1 81.344,10.995 17.148,17.148 0 0 1 85.826,5.217 19.891,19.891 0 0 1 90.386,2.351 24.695,24.695 0 0 1 92.836,1.382 26.252,26.252 0 0 1 98.342,0.195 33.378,33.378 0 0 1 102,0 a 30.032,30.032 0 0 1 5.122,0.421 24.578,24.578 0 0 1 3.407,0.837 19.416,19.416 0 0 1 4.598,2.162 17.122,17.122 0 0 1 2.051,1.561 16.68,16.68 0 0 1 4.211,5.851 19.178,19.178 0 0 1 0.097,0.225 18.904,18.904 0 0 1 1.274,4.641 25.185,25.185 0 0 1 0.258,3.676 v 2.291 H 89.3 q 0.448,1.619 1.481,2.964 a 7.768,7.768 0 0 0 1.568,1.516 10.168,10.168 0 0 0 1.234,0.775 12.786,12.786 0 0 0 1.802,0.782 q 0.866,0.304 1.863,0.538 a 22.745,22.745 0 0 0 0.68,0.149 23.916,23.916 0 0 0 2.355,0.348 q 1.736,0.175 3.809,0.175 a 39.329,39.329 0 0 0 4.98,-0.311 45.293,45.293 0 0 0 2.924,-0.467 37.696,37.696 0 0 0 1.633,-0.355 40.53,40.53 0 0 0 2.014,-0.539 30.865,30.865 0 0 0 1.809,-0.594 24.106,24.106 0 0 0 1.141,-0.448 q 0.529,-0.224 0.972,-0.448 a 10.626,10.626 0 0 0 0.639,-0.349 z M 89.3,14.892 h 24.529 q -0.125,-1.27 -0.76,-2.627 a 6.357,6.357 0 0 0 -1.132,-1.651 8.248,8.248 0 0 0 -0.873,-0.802 8.858,8.858 0 0 0 -1.442,-0.928 Q 108.91,8.513 108.061,8.205 A 16.302,16.302 0 0 0 107.479,8.006 Q 105.262,7.297 101.95,7.297 a 21.123,21.123 0 0 0 -2.476,0.137 q -1.593,0.188 -2.903,0.635 a 16.503,16.503 0 0 0 -1.903,0.776 q -0.974,0.474 -1.762,1.044 a 10.02,10.02 0 0 0 -0.132,0.097 11.344,11.344 0 0 0 -1.286,1.112 8.363,8.363 0 0 0 -1.092,1.353 10.333,10.333 0 0 0 -0.571,1.001 q -0.256,0.519 -0.408,1.003 A 5.302,5.302 0 0 0 89.3,14.892 Z"
     id="2"
     vector-effect="non-scaling-stroke"
     style="font-size:12px;fill:#000000;fill-rule:evenodd;stroke:#000000;stroke-width:0.25mm;stroke-linecap:round" />
  <path
     d="m 154.73279,-10.403937 -11.5605,12.4942498 12.177,13.1677502 h -8.31075 l -8.031,-8.6475 -7.99425,8.6475 h -8.292 L 134.87954,2.0903128 123.31904,-10.403937 h 8.31075 l 7.37775,8.0309998 7.4145,-8.0309998 z"
     id="3"
     vector-effect="non-scaling-stroke"
     style="font-size:12px;fill:#000000;fill-rule:evenodd;stroke:#000000;stroke-width:0.1875mm;stroke-linecap:round" />
  <path
     d="m 180.912,24.28 h -15.34 v 10.808 h -9.239 V 0.872 h 24.579 q 3.064,0 5.378,0.563 a 14.337,14.337 0 0 1 1.047,0.296 13.442,13.442 0 0 1 2.19,0.922 9.829,9.829 0 0 1 2.106,1.493 q 1.656,1.557 2.403,3.698 0.747,2.142 0.747,4.707 a 15.385,15.385 0 0 1 -0.278,2.973 12.943,12.943 0 0 1 -0.469,1.746 q -0.747,2.154 -2.403,3.71 a 9.971,9.971 0 0 1 -2.175,1.535 13.68,13.68 0 0 1 -2.121,0.893 q -2.64,0.872 -6.425,0.872 z M 178.92,8.168 h -13.348 v 8.816 h 13.348 a 26.011,26.011 0 0 0 1.283,-0.03 q 0.61,-0.03 1.138,-0.091 a 12.171,12.171 0 0 0 0.642,-0.091 7.083,7.083 0 0 0 0.867,-0.201 q 0.438,-0.133 0.796,-0.316 A 3.654,3.654 0 0 0 184,16.05 a 2.878,2.878 0 0 0 1.108,-1.332 4.18,4.18 0 0 0 0.236,-0.822 q 0.074,-0.398 0.093,-0.856 a 7.939,7.939 0 0 0 0.007,-0.34 7.166,7.166 0 0 0 -0.055,-0.915 q -0.081,-0.629 -0.281,-1.139 A 3.065,3.065 0 0 0 184,9.239 4.211,4.211 0 0 0 183.203,8.801 Q 182.807,8.633 182.335,8.512 A 8.002,8.002 0 0 0 181.983,8.43 10.79,10.79 0 0 0 180.969,8.27 Q 180.413,8.208 179.773,8.184 A 22.476,22.476 0 0 0 178.92,8.168 Z"
     id="4"
     vector-effect="non-scaling-stroke"
     style="font-size:12px;fill:#000000;fill-rule:evenodd;stroke:#000000;stroke-width:0.25mm;stroke-linecap:round" />
  <path
     d="m 231.389,35.088 -3.212,-6.475 h -19.075 l -3.213,6.475 H 195.58 L 213.484,0.872 h 10.31 l 17.905,34.216 z m -12.7,-25.749 -6.275,12.6 h 12.501 z"
     id="5"
     vector-effect="non-scaling-stroke"
     style="font-size:12px;fill:#000000;fill-rule:evenodd;stroke:#000000;stroke-width:0.25mm;stroke-linecap:round" />
  <path
     d="m 256.541,35.088 h -9.239 V 0.872 h 9.239 z"
     id="6"
     vector-effect="non-scaling-stroke"
     style="font-size:12px;fill:#000000;fill-rule:evenodd;stroke:#000000;stroke-width:0.25mm;stroke-linecap:round" />
  <path
     d="m 276.487,22.487 v 12.601 h -9.238 V 0.872 h 23.159 a 30.39,30.39 0 0 1 2.642,0.108 q 2.069,0.181 3.695,0.664 2.464,0.731 4.058,2.042 a 8.402,8.402 0 0 1 0.176,0.149 q 1.631,1.42 2.365,3.424 a 11.975,11.975 0 0 1 0.646,2.812 15.059,15.059 0 0 1 0.089,1.658 q 0,2.167 -0.61,3.785 a 9.339,9.339 0 0 1 -0.928,1.844 7.99,7.99 0 0 1 -0.716,0.933 9.808,9.808 0 0 1 -2.403,1.955 q -1.369,0.797 -2.888,1.32 L 307.74,35.088 H 296.932 L 286.573,22.487 Z M 289.138,8.019 h -12.651 v 7.321 h 12.651 q 1.17,0 2.061,-0.104 a 9.928,9.928 0 0 0 0.641,-0.095 6.436,6.436 0 0 0 0.722,-0.174 q 0.594,-0.182 1.008,-0.461 0.648,-0.436 0.909,-1.133 a 3.809,3.809 0 0 0 0.184,-0.693 q 0.058,-0.342 0.073,-0.734 a 7.135,7.135 0 0 0 0.005,-0.267 6.326,6.326 0 0 0 -0.043,-0.753 q -0.062,-0.523 -0.219,-0.94 -0.261,-0.697 -0.909,-1.133 A 3.387,3.387 0 0 0 292.946,8.527 Q 292.466,8.333 291.84,8.218 A 10.563,10.563 0 0 0 290.952,8.097 Q 290.475,8.05 289.925,8.032 a 23.127,23.127 0 0 0 -0.787,-0.013 z"
     id="7"
     vector-effect="non-scaling-stroke"
     style="font-size:12px;fill:#000000;fill-rule:evenodd;stroke:#000000;stroke-width:0.25mm;stroke-linecap:round" />
</svg>
