<?xml version="1.0" encoding="UTF-8" standalone="no"?>
<svg
   width="240.56923"
   height="27.292997"
   viewBox="0 0 240.56924 27.292998"
   version="1.1"
   id="svg833"
   sodipodi:docname="SyncopateBoldFlexPAIR.svg"
   inkscape:version="1.1.1 (c3084ef, 2021-09-22)"
   xmlns:inkscape="http://www.inkscape.org/namespaces/inkscape"
   xmlns:sodipodi="http://sodipodi.sourceforge.net/DTD/sodipodi-0.dtd"
   xmlns="http://www.w3.org/2000/svg"
   xmlns:svg="http://www.w3.org/2000/svg">
  <defs
     id="defs837" />
  <sodipodi:namedview
     id="namedview835"
     pagecolor="#ffffff"
     bordercolor="#666666"
     borderopacity="1.0"
     inkscape:pageshadow="2"
     inkscape:pageopacity="0.0"
     inkscape:pagecheckerboard="0"
     showgrid="false"
     inkscape:zoom="1.6949412"
     inkscape:cx="97.643505"
     inkscape:cy="2.6549594"
     inkscape:window-width="1280"
     inkscape:window-height="971"
     inkscape:window-x="0"
     inkscape:window-y="25"
     inkscape:window-maximized="0"
     inkscape:current-layer="svgGroup" />
  <g
     id="svgGroup"
     stroke-linecap="round"
     fill-rule="evenodd"
     font-size="12px"
     stroke="#000"
     stroke-width="0.25mm"
     fill="#000"
     style="fill:#000000;stroke:#000000;stroke-width:0.25mm"
     transform="translate(-43.954326,-4.3579005)">
    <path
       d="M 68.404982,10.903599 H 51.332731 v 4.296691 h 16.18436 v 5.266911 h -16.18436 v 9.869683 H 44.608776 V 5.636688 h 23.796206 z"
       id="0"
       vector-effect="non-scaling-stroke"
       style="fill:#000000;stroke-width:0.344909mm" />
    <path
       d="m 80.874027,5.636688 v 14.129557 q 0,1.086445 0.142645,1.892796 a 5.8986527,5.8509202 0 0 0 0.147012,0.633098 3.8375812,3.8065271 0 0 0 0.336962,0.804908 2.9358624,2.9121051 0 0 0 0.605512,0.750044 3.1920408,3.1662105 0 0 0 0.911908,0.556577 4.4088881,4.373211 0 0 0 0.782363,0.234614 q 0.788185,0.162426 1.850015,0.202851 a 18.947739,18.794412 0 0 0 0.71468,0.01227 h 12.758702 v 5.483478 H 84.987437 a 30.215221,29.970716 0 0 1 -2.07781,-0.06714 q -1.018164,-0.07002 -1.902416,-0.212236 A 15.126169,15.003766 0 0 1 79.99487,29.860436 10.977098,10.88827 0 0 1 78.447611,29.386876 Q 77.602659,29.054807 76.932374,28.60146 a 6.3848094,6.3331429 0 0 1 -0.299845,-0.215124 5.7472746,5.7007671 0 0 1 -1.893683,-2.525894 q -0.541467,-1.404798 -0.585134,-3.29615 a 14.771012,14.651484 0 0 1 -0.0036,-0.334957 V 5.636688 Z"
       id="1"
       vector-effect="non-scaling-stroke"
       style="fill:#000000;stroke-width:0.344909mm" />
    <path
       d="m 132.09078,23.343933 v 5.770069 a 35.803112,35.513389 0 0 1 -6.11699,1.44739 q -3.05376,0.440353 -6.24362,0.440353 -4.01006,0 -7.15261,-0.843168 a 20.151486,19.988418 0 0 1 -0.10553,-0.02888 18.030009,17.884108 0 0 1 -2.84562,-1.027971 13.549071,13.43943 0 0 1 -2.51011,-1.497923 q -2.17461,-1.65385 -3.31649,-4.044751 a 11.850433,11.754538 0 0 1 -1.04145,-3.672977 14.861257,14.740998 0 0 1 -0.10044,-1.73759 12.14664,12.048348 0 0 1 0.91337,-4.674239 11.74345,11.648421 0 0 1 0.23798,-0.529867 12.479963,12.378973 0 0 1 3.26191,-4.171082 14.476262,14.359118 0 0 1 3.31867,-2.0689374 17.972514,17.827079 0 0 1 1.78306,-0.6995116 19.105667,18.951062 0 0 1 4.00716,-0.8568837 24.291823,24.095252 0 0 1 2.66221,-0.1407686 21.856673,21.679807 0 0 1 3.72769,0.3039158 17.887364,17.742618 0 0 1 2.47954,0.6042221 14.130566,14.016221 0 0 1 3.34633,1.5607267 12.46104,12.360204 0 0 1 1.49268,1.1268706 12.139362,12.041129 0 0 1 3.06468,4.2237801 13.957355,13.844411 0 0 1 0.0706,0.162425 13.757943,13.646613 0 0 1 0.92719,3.350292 18.329126,18.180805 0 0 1 0.18777,2.653669 v 1.65385 h -24.53927 q 0.32605,1.168741 1.07784,2.139683 a 5.653391,5.6076432 0 0 0 1.14116,1.094386 7.4000618,7.3401798 0 0 0 0.89808,0.559464 9.3053884,9.2300884 0 0 0 1.31146,0.564519 q 0.63026,0.219454 1.35585,0.388377 a 16.553344,16.419393 0 0 0 0.49489,0.107561 17.405574,17.264727 0 0 0 1.71393,0.251218 q 1.26342,0.126331 2.77211,0.126331 a 28.622839,28.39122 0 0 0 3.62434,-0.224508 32.963316,32.696574 0 0 0 2.12803,-0.337123 27.434375,27.212374 0 0 0 1.18846,-0.256271 29.496902,29.258211 0 0 0 1.46575,-0.389099 22.462914,22.281142 0 0 0 1.31655,-0.428802 17.543852,17.401886 0 0 0 0.8304,-0.323407 q 0.38499,-0.161704 0.7074,-0.323407 a 7.7333848,7.6708055 0 0 0 0.46505,-0.25194 z m -22.4913,-7.586344 h 17.85171 q -0.091,-0.916801 -0.55312,-1.896406 a 4.6264942,4.5890561 0 0 0 -0.82384,-1.191841 6.0027252,5.9541505 0 0 0 -0.63535,-0.578955 6.4466706,6.3945036 0 0 0 -1.04946,-0.669915 q -0.51818,-0.267821 -1.13607,-0.490163 a 11.864261,11.768254 0 0 0 -0.42356,-0.143656 q -1.61349,-0.51182 -4.0239,-0.51182 a 15.372886,15.248487 0 0 0 -1.80198,0.0989 q -1.15935,0.135715 -2.11274,0.4584 a 12.010545,11.913354 0 0 0 -1.38497,0.560187 q -0.70885,0.342176 -1.28234,0.753653 a 7.2923504,7.23334 0 0 0 -0.0961,0.07002 8.2559304,8.1891227 0 0 0 -0.93592,0.802742 6.0864198,6.0371679 0 0 0 -0.79474,0.976718 7.5201454,7.4592916 0 0 0 -0.41556,0.722612 q -0.18631,0.374661 -0.29694,0.724056 a 3.8586868,3.8274619 0 0 0 -0.0851,0.315466 z"
       id="2"
       vector-effect="non-scaling-stroke"
       style="fill:#000000;stroke-width:0.344909mm" />
    <path
       d="m 167.93829,5.636688 -11.218,12.025969 11.81623,12.674227 H 160.472 l -7.79307,-8.323394 -7.7574,8.323394 h -8.04633 l 11.79804,-12.674227 -11.218,-12.025969 h 8.06453 l 7.15916,7.73 7.19483,-7.73 z"
       id="3"
       vector-effect="non-scaling-stroke"
       style="fill:#157878;stroke-width:1;stroke-miterlimit:4;stroke-dasharray:none" />
    <path
       d="m 190.82841,22.534694 h -11.16414 v 7.80219 h -6.72395 V 5.636688 h 17.88809 q 2.22991,0 3.91399,0.4064242 a 10.434174,10.34974 0 0 1 0.76199,0.2136795 9.7828118,9.7036483 0 0 1 1.59384,0.6655828 7.1533445,7.095459 0 0 1 1.5327,1.0777821 q 1.2052,1.123983 1.74885,2.6695504 0.54366,1.546288 0.54366,3.397937 a 11.196887,11.106281 0 0 1 -0.20233,2.146179 9.4196498,9.3434251 0 0 1 -0.34133,1.260421 q -0.54365,1.554951 -1.74885,2.678213 a 7.2566892,7.1979674 0 0 1 -1.58292,1.108101 9.9560233,9.8754582 0 0 1 -1.54362,0.644648 q -1.92134,0.629488 -4.67598,0.629488 z m -1.44974,-11.631095 h -9.7144 v 6.364184 h 9.7144 a 18.930272,18.777087 0 0 0 0.93374,-0.02166 q 0.44395,-0.02166 0.82821,-0.06569 a 8.8578041,8.7861259 0 0 0 0.46724,-0.06569 5.1548621,5.1131484 0 0 0 0.63098,-0.145099 q 0.31877,-0.09601 0.57932,-0.228118 a 2.6593062,2.6377869 0 0 0 0.25763,-0.147987 2.0945493,2.0776001 0 0 0 0.80638,-0.961558 3.0421182,3.0175011 0 0 0 0.17176,-0.593394 q 0.0538,-0.287312 0.0677,-0.617938 a 5.7778413,5.7310865 0 0 0 0.005,-0.245443 5.2152678,5.1730653 0 0 0 -0.04,-0.660529 q -0.059,-0.454069 -0.20451,-0.822233 a 2.2306441,2.2125935 0 0 0 -0.80638,-1.0157 3.0646794,3.0398797 0 0 0 -0.58004,-0.316187 q -0.2882,-0.121278 -0.63171,-0.208627 a 5.8236914,5.7765655 0 0 0 -0.25618,-0.0592 7.8527406,7.7891955 0 0 0 -0.73797,-0.115502 q -0.40465,-0.04476 -0.87042,-0.06208 a 16.357572,16.225205 0 0 0 -0.6208,-0.01155 z"
       id="4"
       vector-effect="non-scaling-stroke"
       style="fill:#000000;stroke-width:0.344909mm" />
    <path
       d="m 227.56453,30.336884 -2.33763,-4.674239 h -13.88239 l -2.33836,4.674239 h -7.50267 L 214.53364,5.636688 h 7.50341 l 13.03089,24.700196 z m -9.2428,-18.587952 -4.56681,9.095817 h 9.09797 z"
       id="5"
       vector-effect="non-scaling-stroke"
       style="fill:#000000;stroke-width:0.344909mm" />
    <path
       d="m 245.86964,30.336884 h -6.72395 V 5.636688 h 6.72395 z"
       id="6"
       vector-effect="non-scaling-stroke"
       style="fill:#000000;stroke-width:0.344909mm" />
    <path
       d="m 260.38593,21.240345 v 9.096539 H 253.6627 V 5.636688 h 16.85465 a 22.117218,21.938244 0 0 1 1.92279,0.077964 q 1.50578,0.1306621 2.68915,0.4793351 1.79325,0.5277018 2.95333,1.4740999 a 6.1148032,6.0653216 0 0 1 0.12809,0.1075616 q 1.187,1.0250841 1.72119,2.4717524 a 8.7151593,8.6446354 0 0 1 0.47015,2.029955 10.959631,10.870945 0 0 1 0.0648,1.196894 q 0,1.564336 -0.44394,2.732355 a 6.7967326,6.7417328 0 0 1 -0.67538,1.331165 5.814958,5.7679029 0 0 1 -0.52109,0.673524 7.1380611,7.0802993 0 0 1 -1.74886,1.411295 q -0.99633,0.575347 -2.10182,0.952895 l 8.15549,9.7614 h -7.86584 l -7.53907,-9.096539 z m 9.20714,-10.444308 h -9.20714 v 5.284959 h 9.20714 q 0.8515,0 1.49995,-0.07508 a 7.2253947,7.1669261 0 0 0 0.46651,-0.06858 4.6839887,4.6460855 0 0 0 0.52546,-0.125609 q 0.4323,-0.131384 0.7336,-0.332792 0.4716,-0.314744 0.66155,-0.817901 a 2.772112,2.7496798 0 0 0 0.13391,-0.50027 q 0.0422,-0.246887 0.0531,-0.529868 a 5.1927066,5.1506867 0 0 0 0.004,-0.192744 4.603933,4.5666775 0 0 0 -0.0313,-0.543584 q -0.0451,-0.377548 -0.15938,-0.678577 -0.18995,-0.503157 -0.66155,-0.817901 a 2.4649891,2.4450422 0 0 0 -0.45414,-0.235336 q -0.34933,-0.140047 -0.80492,-0.223064 a 7.6875346,7.6253264 0 0 0 -0.64627,-0.08735 q -0.34715,-0.03393 -0.74743,-0.04692 a 16.831356,16.695155 0 0 0 -0.57276,-0.0094 z"
       id="7"
       vector-effect="non-scaling-stroke"
       style="fill:#000000;stroke-width:0.344909mm" />
  </g>
</svg>
