<?xml version="1.0" encoding="UTF-8" standalone="no"?>
<svg
   width="180.00111"
   height="180.00111"
   viewBox="0 0 180.00113 180.00112"
   version="1.1"
   id="svg833"
   sodipodi:docname="favicon180px.svg"
   inkscape:version="1.1.1 (c3084ef, 2021-09-22)"
   inkscape:export-filename="/Users/jens/Desktop/e^180x.png"
   inkscape:export-xdpi="300"
   inkscape:export-ydpi="300"
   xmlns:inkscape="http://www.inkscape.org/namespaces/inkscape"
   xmlns:sodipodi="http://sodipodi.sourceforge.net/DTD/sodipodi-0.dtd"
   xmlns="http://www.w3.org/2000/svg"
   xmlns:svg="http://www.w3.org/2000/svg">
  <defs
     id="defs837">
    <inkscape:path-effect
       effect="fillet_chamfer"
       id="path-effect1509"
       is_visible="true"
       lpeversion="1"
       satellites_param="F,0,0,1,0,45,0,1 @ F,0,0,1,0,45,0,1 @ F,0,0,1,0,45,0,1 @ F,0,0,1,0,45,0,1"
       unit="px"
       method="auto"
       mode="F"
       radius="45"
       chamfer_steps="1"
       flexible="false"
       use_knot_distance="true"
       apply_no_radius="true"
       apply_with_radius="true"
       only_selected="false"
       hide_knots="false" />
    <inkscape:path-effect
       effect="fillet_chamfer"
       id="path-effect1113"
       is_visible="true"
       lpeversion="1"
       satellites_param="F,0,0,1,0,0,0,1 @ F,0,0,1,0,0,0,1 @ F,0,0,1,0,0,0,1 @ F,0,0,1,0,0,0,1"
       unit="px"
       method="auto"
       mode="F"
       radius="90"
       chamfer_steps="1"
       flexible="false"
       use_knot_distance="true"
       apply_no_radius="true"
       apply_with_radius="true"
       only_selected="false"
       hide_knots="false" />
    <inkscape:path-effect
       effect="fillet_chamfer"
       id="path-effect1983"
       is_visible="true"
       lpeversion="1"
       satellites_param="F,0,0,1,0,8,0,1 @ F,0,0,1,0,8,0,1 @ F,0,0,1,0,8,0,1 @ F,0,0,1,0,8,0,1"
       unit="px"
       method="auto"
       mode="F"
       radius="90"
       chamfer_steps="1"
       flexible="false"
       use_knot_distance="true"
       apply_no_radius="true"
       apply_with_radius="true"
       only_selected="false"
       hide_knots="false" />
  </defs>
  <sodipodi:namedview
     id="namedview835"
     pagecolor="#ffffff"
     bordercolor="#666666"
     borderopacity="1.0"
     inkscape:pageshadow="2"
     inkscape:pageopacity="0.0"
     inkscape:pagecheckerboard="0"
     showgrid="false"
     inkscape:zoom="2.8284271"
     inkscape:cx="82.908271"
     inkscape:cy="85.029591"
     inkscape:window-width="1280"
     inkscape:window-height="971"
     inkscape:window-x="0"
     inkscape:window-y="25"
     inkscape:window-maximized="0"
     inkscape:current-layer="svg833" />
  <path
     style="font-size:12px;fill:#ffffff;fill-rule:evenodd;stroke:#000000;stroke-width:0.100038;stroke-linecap:round;stroke-linejoin:bevel;stroke-miterlimit:4;stroke-dasharray:none;stroke-opacity:1"
     id="rect1566"
     width="179.89999"
     height="179.89999"
     x="0.050555941"
     y="0.050555941"
     sodipodi:type="rect"
     inkscape:path-effect="#path-effect1509"
     d="m 45.050556,0.05055594 h 89.899994 a 45,45 45 0 1 45,45.00000006 v 89.899994 a 45,45 135 0 1 -45,45 H 45.050556 a 45,45 45 0 1 -45.00000006,-45 V 45.050556 A 45,45 135 0 1 45.050556,0.05055594 Z" />
  <g
     id="g1513"
     transform="matrix(0.96159818,0,0,0.96181994,7.224579,6.1738147)"
     style="stroke-width:1.03981">
    <path
       d="m 97.745323,130.94377 v 18.56953 a 112.85755,114.29095 0 0 1 -19.281801,4.65806 q -9.625973,1.41716 -19.680963,1.41716 -12.640394,0 -22.54625,-2.71352 a 63.520941,64.327715 0 0 1 -0.332637,-0.093 56.83368,57.555521 0 0 1 -8.969884,-3.30827 42.708996,43.251438 0 0 1 -7.9123,-4.82069 Q 12.166736,139.33059 8.5673327,131.63608 a 37.3546,37.829035 0 0 1 -3.2828263,-11.82056 46.845231,47.44021 0 0 1 -0.316602,-5.59199 38.288293,38.774591 0 0 1 2.8790943,-15.042867 37.017371,37.487526 0 0 1 0.750156,-1.70525 39.338986,39.838625 0 0 1 10.2821013,-13.423578 45.631663,46.211226 0 0 1 10.461019,-6.658356 56.652449,57.371987 0 0 1 5.620508,-2.251204 60.224338,60.989247 0 0 1 12.631259,-2.757665 76.571994,77.544535 0 0 1 8.391735,-0.453031 68.895984,69.771027 0 0 1 11.750322,0.978079 56.38404,57.100171 0 0 1 7.815933,1.944535 44.541969,45.107698 0 0 1 10.54821,5.022812 39.279334,39.778222 0 0 1 4.70518,3.626547 38.26535,38.751358 0 0 1 9.660388,13.593181 43.995977,44.554767 0 0 1 0.22256,0.52272 43.367398,43.918207 0 0 1 2.92266,10.782077 57.776551,58.510364 0 0 1 0.59188,8.54017 v 5.3225 H 26.848921 q 1.027762,3.7613 3.397532,6.88603 a 17.820458,18.046796 0 0 0 3.597135,3.52201 23.326264,23.62253 0 0 0 2.830904,1.8005 29.332181,29.704727 0 0 0 4.133945,1.81676 q 1.986689,0.70626 4.27387,1.24989 a 52.178981,52.841703 0 0 0 1.559981,0.34615 54.865356,55.5622 0 0 0 5.402601,0.80848 q 3.982517,0.40653 8.738166,0.40653 a 90.224098,91.370031 0 0 0 11.424544,-0.72252 103.90603,105.22574 0 0 0 6.707917,-1.08494 86.477856,87.576207 0 0 0 3.746224,-0.82475 92.9793,94.160226 0 0 0 4.6203,-1.25222 70.80696,71.706274 0 0 0 4.149987,-1.37999 55.301233,56.003609 0 0 0 2.617564,-1.0408 q 1.213558,-0.52042 2.229847,-1.0408 a 24.376956,24.686567 0 0 0 1.465915,-0.81077 z M 26.848886,106.52902 h 56.271658 q -0.286848,-2.95049 -1.743534,-6.1031 a 14.583504,14.768728 0 0 0 -2.596882,-3.835643 18.921619,19.161942 0 0 0 -2.002733,-1.86322 20.321011,20.579108 0 0 0 -3.308077,-2.155955 Q 71.835926,91.709189 69.888231,90.993637 A 37.398185,37.873176 0 0 0 68.553098,90.531314 Q 63.467097,88.884152 55.869073,88.884152 a 48.457974,49.073438 0 0 0 -5.680152,0.318294 q -3.654469,0.436763 -6.659715,1.475245 a 37.859298,38.340147 0 0 0 -4.365665,1.802819 q -2.23442,1.101209 -4.042157,2.425446 a 22.986739,23.278693 0 0 0 -0.302955,0.225344 26.024109,26.354639 0 0 0 -2.950182,2.583423 19.18544,19.429113 0 0 0 -2.505152,3.143317 23.704788,24.005861 0 0 0 -1.309922,2.32555 q -0.58728,1.20575 -0.936002,2.33019 a 12.163243,12.317727 0 0 0 -0.268274,1.01525 z"
       id="2"
       vector-effect="non-scaling-stroke"
       style="font-size:12px;fill:#000000;fill-rule:evenodd;stroke:#000000;stroke-width:2.07964;stroke-linecap:round;stroke-miterlimit:4;stroke-dasharray:none;stroke-opacity:1" />
    <path
       d="m 155.67331,27.037635 -35.36105,38.702568 37.24677,40.788817 H 132.13829 L 107.57319,79.742269 83.120544,106.52902 H 57.757131 L 94.946572,65.740203 59.585511,27.037635 h 25.420784 l 22.566895,24.877069 22.67934,-24.877069 z"
       id="3"
       vector-effect="non-scaling-stroke"
       style="font-size:12px;fill:#157878;fill-rule:evenodd;stroke:#000000;stroke-width:2.07964;stroke-linecap:round;stroke-miterlimit:4;stroke-dasharray:none;stroke-opacity:1" />
  </g>
</svg>
