<?xml version="1.0" encoding="UTF-8" standalone="no"?>
<svg
   width="135.96646"
   height="36.954082"
   viewBox="0 0 135.96647 36.954084"
   version="1.1"
   id="svg833"
   sodipodi:docname="exp.svg"
   inkscape:version="1.1.1 (c3084ef, 2021-09-22)"
   xmlns:inkscape="http://www.inkscape.org/namespaces/inkscape"
   xmlns:sodipodi="http://sodipodi.sourceforge.net/DTD/sodipodi-0.dtd"
   xmlns="http://www.w3.org/2000/svg"
   xmlns:svg="http://www.w3.org/2000/svg">
  <defs
     id="defs837" />
  <sodipodi:namedview
     id="namedview835"
     pagecolor="#ffffff"
     bordercolor="#666666"
     borderopacity="1.0"
     inkscape:pageshadow="2"
     inkscape:pageopacity="0.0"
     inkscape:pagecheckerboard="0"
     showgrid="false"
     inkscape:zoom="1.6949412"
     inkscape:cx="157.82258"
     inkscape:cy="6.7848961"
     inkscape:window-width="1280"
     inkscape:window-height="971"
     inkscape:window-x="0"
     inkscape:window-y="25"
     inkscape:window-maximized="0"
     inkscape:current-layer="svgGroup" />
  <g
     id="svgGroup"
     stroke-linecap="round"
     fill-rule="evenodd"
     font-size="12px"
     stroke="#000"
     stroke-width="0.25mm"
     fill="#000"
     style="fill:#000000;stroke:#000000;stroke-width:0.25mm"
     transform="translate(-79.289096,0.47264188)">
    <path
       d="m 120.204,25.401 v 7.993 a 49.195,49.195 0 0 1 -8.405,2.005 q -4.196,0.61 -8.579,0.61 -5.51,0 -9.828,-1.168 a 27.689,27.689 0 0 1 -0.145,-0.04 24.774,24.774 0 0 1 -3.91,-1.424 18.617,18.617 0 0 1 -3.449,-2.075 Q 82.9,29.011 81.331,25.699 A 16.283,16.283 0 0 1 79.9,20.611 20.42,20.42 0 0 1 79.762,18.204 16.69,16.69 0 0 1 81.017,11.729 16.136,16.136 0 0 1 81.344,10.995 17.148,17.148 0 0 1 85.826,5.217 19.891,19.891 0 0 1 90.386,2.351 24.695,24.695 0 0 1 92.836,1.382 26.252,26.252 0 0 1 98.342,0.195 33.378,33.378 0 0 1 102,0 a 30.032,30.032 0 0 1 5.122,0.421 24.578,24.578 0 0 1 3.407,0.837 19.416,19.416 0 0 1 4.598,2.162 17.122,17.122 0 0 1 2.051,1.561 16.68,16.68 0 0 1 4.211,5.851 19.178,19.178 0 0 1 0.097,0.225 18.904,18.904 0 0 1 1.274,4.641 25.185,25.185 0 0 1 0.258,3.676 v 2.291 H 89.3 q 0.448,1.619 1.481,2.964 a 7.768,7.768 0 0 0 1.568,1.516 10.168,10.168 0 0 0 1.234,0.775 12.786,12.786 0 0 0 1.802,0.782 q 0.866,0.304 1.863,0.538 a 22.745,22.745 0 0 0 0.68,0.149 23.916,23.916 0 0 0 2.355,0.348 q 1.736,0.175 3.809,0.175 a 39.329,39.329 0 0 0 4.98,-0.311 45.293,45.293 0 0 0 2.924,-0.467 37.696,37.696 0 0 0 1.633,-0.355 40.53,40.53 0 0 0 2.014,-0.539 30.865,30.865 0 0 0 1.809,-0.594 24.106,24.106 0 0 0 1.141,-0.448 q 0.529,-0.224 0.972,-0.448 a 10.626,10.626 0 0 0 0.639,-0.349 z M 89.3,14.892 h 24.529 q -0.125,-1.27 -0.76,-2.627 a 6.357,6.357 0 0 0 -1.132,-1.651 8.248,8.248 0 0 0 -0.873,-0.802 8.858,8.858 0 0 0 -1.442,-0.928 Q 108.91,8.513 108.061,8.205 A 16.302,16.302 0 0 0 107.479,8.006 Q 105.262,7.297 101.95,7.297 a 21.123,21.123 0 0 0 -2.476,0.137 q -1.593,0.188 -2.903,0.635 a 16.503,16.503 0 0 0 -1.903,0.776 q -0.974,0.474 -1.762,1.044 a 10.02,10.02 0 0 0 -0.132,0.097 11.344,11.344 0 0 0 -1.286,1.112 8.363,8.363 0 0 0 -1.092,1.353 10.333,10.333 0 0 0 -0.571,1.001 q -0.256,0.519 -0.408,1.003 A 5.302,5.302 0 0 0 89.3,14.892 Z"
       id="2"
       vector-effect="non-scaling-stroke"
       style="fill:#000000" />
    <path
       d="m 169.46,0.872 -15.414,16.659 16.236,17.557 h -11.081 l -10.708,-11.53 -10.659,11.53 H 126.778 L 142.989,17.531 127.575,0.872 h 11.081 l 9.837,10.708 9.886,-10.708 z"
       id="3"
       vector-effect="non-scaling-stroke"
       style="fill:#157878" />
    <path
       d="m 200.912,24.28 h -15.34 v 10.808 h -9.239 V 0.872 h 24.579 q 3.064,0 5.378,0.563 a 14.337,14.337 0 0 1 1.047,0.296 13.442,13.442 0 0 1 2.19,0.922 9.829,9.829 0 0 1 2.106,1.493 q 1.656,1.557 2.403,3.698 0.747,2.142 0.747,4.707 a 15.385,15.385 0 0 1 -0.278,2.973 12.943,12.943 0 0 1 -0.469,1.746 q -0.747,2.154 -2.403,3.71 a 9.971,9.971 0 0 1 -2.175,1.535 13.68,13.68 0 0 1 -2.121,0.893 q -2.64,0.872 -6.425,0.872 z M 198.92,8.168 h -13.348 v 8.816 h 13.348 a 26.011,26.011 0 0 0 1.283,-0.03 q 0.61,-0.03 1.138,-0.091 a 12.171,12.171 0 0 0 0.642,-0.091 7.083,7.083 0 0 0 0.867,-0.201 q 0.438,-0.133 0.796,-0.316 A 3.654,3.654 0 0 0 204,16.05 a 2.878,2.878 0 0 0 1.108,-1.332 4.18,4.18 0 0 0 0.236,-0.822 q 0.074,-0.398 0.093,-0.856 a 7.939,7.939 0 0 0 0.007,-0.34 7.166,7.166 0 0 0 -0.055,-0.915 q -0.081,-0.629 -0.281,-1.139 A 3.065,3.065 0 0 0 204,9.239 4.211,4.211 0 0 0 203.203,8.801 Q 202.807,8.633 202.335,8.512 A 8.002,8.002 0 0 0 201.983,8.43 10.79,10.79 0 0 0 200.969,8.27 Q 200.413,8.208 199.773,8.184 A 22.476,22.476 0 0 0 198.92,8.168 Z"
       id="4"
       vector-effect="non-scaling-stroke"
       style="fill:#000000" />
  </g>
</svg>
